<?xml version="1.0" standalone="no"?>
<!DOCTYPE svg PUBLIC "-//W3C//DTD SVG 20010904//EN"
 "http://www.w3.org/TR/2001/REC-SVG-20010904/DTD/svg10.dtd">
<svg version="1.0" xmlns="http://www.w3.org/2000/svg"
 width="512.000000pt" height="513.000000pt" viewBox="0 0 512.000000 513.000000"
 preserveAspectRatio="xMidYMid meet">

<g transform="translate(0.000000,513.000000) scale(0.100000,-0.100000)"
fill="#000000" stroke="none">
<path d="M2910 5123 c-489 -80 -843 -370 -994 -813 -56 -165 -68 -247 -72
-510 -3 -135 -6 -279 -7 -320 l-2 -75 -280 -5 c-236 -4 -285 -8 -311 -22 -46
-25 -111 -101 -123 -144 -7 -25 -11 -199 -11 -485 l0 -445 26 -52 c14 -29 42
-66 62 -82 65 -53 108 -60 389 -60 l253 0 0 -955 c0 -788 2 -961 14 -989 19
-46 72 -104 120 -129 40 -22 49 -22 508 -25 456 -3 469 -2 516 18 27 12 65 38
85 58 70 72 67 20 67 1073 l0 948 328 3 327 3 52 29 c57 32 105 91 122 151 7
26 11 183 11 461 0 464 -2 486 -61 557 -17 21 -50 48 -72 60 -40 21 -55 22
-372 27 l-330 5 -3 115 c-2 63 0 161 3 218 6 88 10 107 30 130 l23 27 309 5
c264 5 314 8 348 23 50 22 100 70 128 122 22 39 22 48 22 475 0 484 2 469 -70
543 -67 69 -53 67 -557 66 -249 -1 -464 -4 -478 -6z"/>
</g>
</svg>
